<svg xmlns="http://www.w3.org/2000/svg" viewBox="0 0 2946.6947 837.1122"><defs><style>.cls-1{fill:#8fc043;}.cls-2{fill:#031313;}</style></defs><g id="Layer_2" data-name="Layer 2"><g id="Layer_1-2" data-name="Layer 1"><polygon class="cls-1" points="297.794 0.008 0 299.534 0 0.008 297.794 0.008"/><path class="cls-1" d="M682.6486,259.1971,662.56,239.65c-76.0889-74.0442-197.55-73.2125-272.6246,1.8539L137.842,493.6055A45.6945,45.6945,0,0,1,73.22,428.9838L488.0356,14.1761S691.14,21.8209,682.6486,259.1971Z"/><path class="cls-1" d="M564.2541,416.1891,209.3227,763.8575H.7706V624.4589a166.3656,166.3656,0,0,0,218.0355-13.3516l273.0213-268.68a51.6876,51.6876,0,1,1,72.4267,73.7618Z"/><polygon class="cls-1" points="736.673 763.857 415.174 763.857 595.97 583.061 736.673 763.857"/><path class="cls-2" d="M999.574,43.5933q73.7732,0,114.291,32.1355,40.5147,32.1442,40.52,91.3775,0,43.0427-21.2383,71.5372-21.246,28.5035-59.8,41.9166l82.1555,137.4848h-101.157l-73.774-126.3073H927.4776V418.0449H841.4092V43.5933Zm-2.2352,180.5191q31.8551,0,49.18-13.1339,17.3171-13.1242,17.3255-36.0475,0-22.9107-17.3255-36.0482-17.3286-13.1253-49.18-13.1339H927.4776v98.3635Z"/><path class="cls-2" d="M1504.2379,418.0449h-83.274v-34.651a91.19,91.19,0,0,1-33.2538,29.0623q-20.4072,10.61-51.6961,10.6191-31.3068,0-57.2849-11.4579a131.2782,131.2782,0,0,1-44.4314-31.5763q-18.4439-20.12-28.7834-48.0637-10.3465-27.94-10.338-60.9189,0-33.5326,10.338-61.4772a148.1161,148.1161,0,0,1,29.0622-48.623,130.7946,130.7946,0,0,1,44.7118-32.1354q25.9859-11.449,56.7257-11.4571,31.2927,0,51.6961,10.8979a91.8227,91.8227,0,0,1,33.2538,29.9V122.9545h83.274ZM1420.9639,260.44a67.207,67.207,0,0,0-21.7959-43.3138q-19.006-17.605-48.0637-17.6051a72.2746,72.2746,0,0,0-29.0622,5.5888,66.3538,66.3538,0,0,0-22.0763,15.3691,65.4276,65.4276,0,0,0-13.9719,22.9143,80.6781,80.6781,0,0,0-4.7508,27.665,72.9446,72.9446,0,0,0,5.0311,26.8263,68.6515,68.6515,0,0,0,13.972,22.3558,64.3132,64.3132,0,0,0,22.0747,15.09,72.6712,72.6712,0,0,0,28.7834,5.5887,71.598,71.598,0,0,0,26.5467-4.75,75.1115,75.1115,0,0,0,21.2382-12.5756,59.4659,59.4659,0,0,0,14.81-19.0022,74.822,74.822,0,0,0,7.2647-23.4727Z"/><path class="cls-2" d="M1551.1817,271.0585q0-33.5326,10.338-61.4772a148.1144,148.1144,0,0,1,29.0622-48.623,130.7942,130.7942,0,0,1,44.7117-32.1354q25.986-11.449,56.7258-11.4571,30.7305,0,51.1385,10.8979a93.76,93.76,0,0,1,33.2538,29.3418V15.6487h83.2724V418.0449h-83.2724v-34.651a91.2159,91.2159,0,0,1-33.2538,29.0623q-20.41,10.61-51.1385,10.6191-31.3068,0-57.2849-11.4579a131.2782,131.2782,0,0,1-44.4314-31.5763q-18.4439-20.12-28.7834-48.0637Q1551.1732,304.0374,1551.1817,271.0585Zm225.23-12.2951q-3.3552-26.2636-22.6355-42.7546-19.2826-16.4783-46.6665-16.4875a72.2751,72.2751,0,0,0-29.0623,5.5888,66.3534,66.3534,0,0,0-22.0762,15.3691,65.4278,65.4278,0,0,0-13.972,22.9143,80.68,80.68,0,0,0-4.7507,27.665,72.9425,72.9425,0,0,0,5.0311,26.8263,68.6512,68.6512,0,0,0,13.9719,22.3558,64.3136,64.3136,0,0,0,22.0748,15.09,72.6712,72.6712,0,0,0,28.7834,5.5887q28.5023,0,47.5045-16.7663a63.4943,63.4943,0,0,0,21.7975-41.9165Z"/><path class="cls-2" d="M1916.1232,45.8285a43.7,43.7,0,0,1,13.6931-32.415Q1943.5041,0,1964.187,0,1984.3085,0,1998,13.4135a43.7346,43.7346,0,0,1,13.6931,32.415q0,19.57-13.6931,32.9743-13.7017,13.4134-33.813,13.4135-20.6814,0-34.3707-13.4135Q1916.1147,65.3892,1916.1232,45.8285Zm6.148,77.126h83.2739v295.09h-83.2739Z"/><path class="cls-2" d="M2361.5458,418.0449h-83.2739v-34.651a91.19,91.19,0,0,1-33.2538,29.0623q-20.4072,10.61-51.6961,10.6191-31.3068,0-57.2849-11.4579a131.2782,131.2782,0,0,1-44.4314-31.5763q-18.4439-20.12-28.7834-48.0637-10.3466-27.94-10.338-60.9189,0-33.5326,10.338-61.4772a148.1144,148.1144,0,0,1,29.0622-48.623,130.7942,130.7942,0,0,1,44.7117-32.1354q25.986-11.449,56.7258-11.4571,31.2927,0,51.6961,10.8979a91.8227,91.8227,0,0,1,33.2538,29.9V122.9545h83.2739ZM2278.2719,260.44a67.2075,67.2075,0,0,0-21.7959-43.3138q-19.0062-17.605-48.0637-17.6051A72.2751,72.2751,0,0,0,2179.35,205.11a66.3534,66.3534,0,0,0-22.0762,15.3691,65.4278,65.4278,0,0,0-13.972,22.9143,80.68,80.68,0,0,0-4.7507,27.665,72.9425,72.9425,0,0,0,5.0311,26.8263,68.6512,68.6512,0,0,0,13.9719,22.3558,64.3136,64.3136,0,0,0,22.0748,15.09,72.6712,72.6712,0,0,0,28.7834,5.5887,71.5971,71.5971,0,0,0,26.5466-4.75,75.1135,75.1135,0,0,0,21.2383-12.5756,59.4642,59.4642,0,0,0,14.81-19.0022,74.82,74.82,0,0,0,7.2648-23.4727Z"/><path class="cls-2" d="M2424.1376,122.9545h83.274v43.0342A116.3521,116.3521,0,0,1,2547.371,130.22q23.7483-12.85,53.9328-12.8543,23.472,0,42.475,8.1035a92.3755,92.3755,0,0,1,32.1355,22.3559,100.9631,100.9631,0,0,1,20.4,34.0918q7.2562,19.845,7.2648,43.8722V418.0449h-83.2739V254.8514q0-25.1506-14.2508-39.961-14.2523-14.8006-36.0482-14.81a53.2613,53.2613,0,0,0-25.1495,5.8684,65.951,65.951,0,0,0-19.5607,15.6487,70.0531,70.0531,0,0,0-12.8551,22.3551,89.1252,89.1252,0,0,0-5.03,26.5466V418.0449h-83.274Z"/><path class="cls-2" d="M2946.6947,190.0264V122.9472h-67.0629l-83.2739-83.8293v83.8293h-47.5061v67.0792h47.5061V329.1811q0,50.8682,25.7117,72.3767,25.6961,21.5324,76.5645,21.5245a372.9134,372.9134,0,0,0,48.0606-3.3629V344.2655q-7.28,1.1421-13.6884,1.6815c-4.2985.3806-8.2957.5549-12.0233.5549q-19.5575,0-30.4544-8.1051-10.8966-8.09-10.8968-30.4544V190.0264Z"/><polygon class="cls-1" points="2879.632 39.118 2879.632 122.947 2796.358 39.118 2879.632 39.118"/><path class="cls-2" d="M821.9833,600.7628q0-34.5492,23.67-53.2134,23.6647-18.66,67.5532-18.6592,45.2639,0,68.4175,20.2144,23.1443,20.2143,23.8421,55.804H950.8705q0-14.5125-9.33-23.1512-9.3288-8.6318-30.0613-8.638-16.9361,0-26.2617,6.3919-9.3288,6.399-9.33,18.1418A19.6676,19.6676,0,0,0,879.69,609.92a30.9708,30.9708,0,0,0,10.1924,8.4653,67.4417,67.4417,0,0,0,14.86,5.7018q8.4622,2.2515,17.7949,4.3186,14.5125,3.1112,30.0613,6.7382a112.4578,112.4578,0,0,1,28.5077,10.712,60.74,60.74,0,0,1,21.2507,19.1774q8.2925,12.0994,8.2933,32.1354,0,31.7946-23.3248,50.9673-23.3232,19.1769-71.7,19.1773-49.416,0-74.1179-20.3863Q816.7988,726.5427,816.8,691.64h54.5958q2.76,31.7948,44.5739,31.79,18.66,0,28.8531-6.22,10.1884-6.22,10.1939-17.2768,0-7.5978-3.9731-12.44a29.428,29.428,0,0,0-10.8848-7.9479,85.2742,85.2742,0,0,0-16.0677-5.183q-9.1593-2.0726-19.1781-3.8-14.1733-2.7615-28.8532-6.22a90.0343,90.0343,0,0,1-26.779-10.8848,59.0091,59.0091,0,0,1-19.6954-19.8682Q821.981,621.15,821.9833,600.7628Z"/><path class="cls-2" d="M1034.8337,672.6353a97.5768,97.5768,0,0,1,7.2571-37.8373,91.8714,91.8714,0,0,1,19.8674-30.0613,89.6765,89.6765,0,0,1,30.0628-19.6962,106.4458,106.4458,0,0,1,76.3639,0,91.2763,91.2763,0,0,1,50.6227,49.931,101.3854,101.3854,0,0,1,0,75.3276,89.5923,89.5923,0,0,1-20.2144,29.8894,93.4648,93.4648,0,0,1-30.4083,19.6955,106.4472,106.4472,0,0,1-76.3639,0,89.5253,89.5253,0,0,1-30.0628-19.6955,92.2112,92.2112,0,0,1-19.8674-29.8894A96.2667,96.2667,0,0,1,1034.8337,672.6353Zm53.2142.3454a45.1177,45.1177,0,0,0,3.1088,16.5859,41.0824,41.0824,0,0,0,8.8122,13.8217,42.0877,42.0877,0,0,0,13.6482,9.33,42.8155,42.8155,0,0,0,17.2775,3.455,41.6109,41.6109,0,0,0,17.104-3.455,38.8152,38.8152,0,0,0,13.1308-9.33,44.1335,44.1335,0,0,0,8.4653-13.8217,45.0863,45.0863,0,0,0,3.11-16.5859,50.0239,50.0239,0,0,0-2.9369-17.104,41.9774,41.9774,0,0,0-8.4668-14.1671,39.6453,39.6453,0,0,0-13.3028-9.503,41.6968,41.6968,0,0,0-17.104-3.4551,42.5627,42.5627,0,0,0-17.4494,3.4551,41.5042,41.5042,0,0,0-13.4763,9.503,42.6921,42.6921,0,0,0-8.8122,14.1671A47.44,47.44,0,0,0,1088.0479,672.9807Z"/><path class="cls-2" d="M1428.0537,763.8579h-51.4855V737.597a73.3037,73.3037,0,0,1-24.7064,21.7688q-14.6892,7.9452-33.3437,7.9471a66.3638,66.3638,0,0,1-26.2617-5.0094,56.9785,56.9785,0,0,1-19.8689-13.8217,62.1985,62.1985,0,0,1-12.6119-21.0787,77.278,77.278,0,0,1-4.4921-26.779V581.4119h51.4855V682.31q0,15.8975,8.8122,24.8784,8.8107,8.99,22.2869,8.9842a32.9523,32.9523,0,0,0,15.5488-3.6277,40.7885,40.7885,0,0,0,12.0946-9.6751,43.3517,43.3517,0,0,0,7.9479-13.8216,55.4368,55.4368,0,0,0,3.1088-16.4132V581.4119h51.4855Z"/><path class="cls-2" d="M1466.7538,581.4119h51.4854v32.8263q11.4037-18.31,28.8532-27.2971a80.7326,80.7326,0,0,1,37.4918-8.9842v54.25h-2.4195a85.9734,85.9734,0,0,0-22.115,2.9369,59.6049,59.6049,0,0,0-20.0409,9.503,56.4742,56.4742,0,0,0-14.858,16.0678,49.2855,49.2855,0,0,0-6.9116,22.2869v80.8567h-51.4854Z"/><path class="cls-2" d="M1600.8208,672.6353a97.5786,97.5786,0,0,1,7.257-37.8373,90.5294,90.5294,0,0,1,20.0409-30.0613,91.5692,91.5692,0,0,1,30.2348-19.6962,100.6314,100.6314,0,0,1,38.1827-7.0836,103.1416,103.1416,0,0,1,34.7269,5.7011,90.1907,90.1907,0,0,1,28.3342,16.0677,87.8779,87.8779,0,0,1,20.2144,24.7065,85.6384,85.6384,0,0,1,10.0205,31.6165h-54.2505a39.3059,39.3059,0,0,0-13.9936-19.8682q-10.1977-7.7744-24.7064-7.7752a40.77,40.77,0,0,0-17.4495,3.6285,43.774,43.774,0,0,0-13.4762,9.6758,42.6921,42.6921,0,0,0-8.8122,14.1671,47.4381,47.4381,0,0,0-3.1089,17.104,46.4674,46.4674,0,0,0,3.1089,16.7586,40.73,40.73,0,0,0,8.8122,13.9944,45.138,45.138,0,0,0,13.4762,9.5023,40.7682,40.7682,0,0,0,17.4495,3.6285q14.5125,0,24.5329-7.6017a41.1037,41.1037,0,0,0,14.1671-19.0046h54.2505a88.6031,88.6031,0,0,1-10.3659,31.0976,83.9624,83.9624,0,0,1-20.2144,24.1884,94.54,94.54,0,0,1-28.1622,15.7222,107.466,107.466,0,0,1-72.9081-1.3824,89.1457,89.1457,0,0,1-30.2364-19.6955,92.2128,92.2128,0,0,1-19.8674-29.8894A96.2685,96.2685,0,0,1,1600.8208,672.6353Z"/><path class="cls-2" d="M1814.7106,533.7277a27.0179,27.0179,0,0,1,8.4668-20.0409q8.4621-8.2936,21.2506-8.2933a28.7132,28.7132,0,0,1,20.9052,8.2933,27.04,27.04,0,0,1,8.4653,20.0409,27.4265,27.4265,0,0,1-8.4653,20.3863,28.7132,28.7132,0,0,1-20.9052,8.2933q-12.7884,0-21.2506-8.2933A27.4046,27.4046,0,0,1,1814.7106,533.7277Zm3.8012,47.6842h51.4855v182.446h-51.4855Z"/><path class="cls-2" d="M1908.6927,581.4119h51.4855V608.019a71.95,71.95,0,0,1,24.7064-22.115q14.6821-7.944,33.3452-7.9471a66.3712,66.3712,0,0,1,26.26,5.01,57.1259,57.1259,0,0,1,19.869,13.8217,62.399,62.399,0,0,1,12.6119,21.0779,78.4806,78.4806,0,0,1,4.4921,27.1253V763.8579h-51.4855V662.96q0-15.55-8.8107-24.7065-8.8107-9.1522-22.2869-9.1568a32.9223,32.9223,0,0,0-15.55,3.6285,40.7775,40.7775,0,0,0-12.093,9.675,43.2943,43.2943,0,0,0-7.9478,13.8217,55.1227,55.1227,0,0,0-3.11,16.4131v91.2226h-51.4855Z"/><path class="cls-2" d="M2301.5719,752.455q0,41.8054-23.4967,63.2346-23.5022,21.42-69.4538,21.4226-21.7687,0-37.49-4.664-15.7278-4.6656-26.0882-13.1309a56.0912,56.0912,0,0,1-15.7223-20.0416,73.5088,73.5088,0,0,1-6.3927-25.7428h51.4855a23.7812,23.7812,0,0,0,11.921,16.4132q9.4985,5.3533,22.9778,5.3556,40.77,0,40.7742-42.8467V735.5237a54.6259,54.6259,0,0,1-20.56,17.2767q-12.6165,6.22-31.9619,6.22a90.6756,90.6756,0,0,1-35.4178-6.7381,79.4446,79.4446,0,0,1-27.4714-18.8319,86.7442,86.7442,0,0,1-17.7949-28.68,98.982,98.982,0,0,1-6.3927-35.9367,99.9808,99.9808,0,0,1,6.3927-36.2821,85.2939,85.2939,0,0,1,17.9684-28.68,83.44,83.44,0,0,1,27.6433-19.0047,87.8525,87.8525,0,0,1,35.0724-6.9108q19.3476,0,31.9619,6.3919a54.9725,54.9725,0,0,1,20.56,17.7964V581.4119h51.4855Zm-137.87-82.2392a42.468,42.468,0,0,0,3.1088,16.2412,43.4535,43.4535,0,0,0,8.6388,13.4762,39.78,39.78,0,0,0,13.65,9.33,44.9369,44.9369,0,0,0,17.7949,3.4551q17.9628,0,29.7159-10.884,11.7429-10.8856,13.4762-28.5077V664.342q-2.0726-17.6224-13.9936-27.6434-11.9219-10.0176-29.1985-10.02a44.68,44.68,0,0,0-17.9684,3.4558,42.2564,42.2564,0,0,0-13.6482,9.33,38.9764,38.9764,0,0,0-8.6387,13.8217A48.401,48.401,0,0,0,2163.7021,670.2158Z"/><path class="cls-2" d="M2431.4938,532.346h53.2141V715.482h99.17v48.3759H2431.4938Z"/><path class="cls-2" d="M2673.7209,529.581v51.8309h41.465V622.877h-41.465v72.91q0,13.8247,6.7381,18.8319,6.7382,5.0129,18.8327,5.01,3.45,0,7.429-.3454,3.9684-.34,8.4652-1.0363v46.648a230.6733,230.6733,0,0,1-29.7159,2.0725q-31.4484,0-47.3388-13.3027-15.9-13.2986-15.8958-44.7474v-86.04h-29.37V581.4119h29.37V529.581Z"/><path class="cls-2" d="M2736.607,672.9807A108.6837,108.6837,0,0,1,2743,634.9715a91.5818,91.5818,0,0,1,17.9683-30.0629,80.8568,80.8568,0,0,1,27.6433-19.8681,86.0171,86.0171,0,0,1,35.0724-7.0836q18.9992,0,31.6165,6.7381a57.9548,57.9548,0,0,1,20.56,18.1411V515.0685h51.4855V763.8579H2875.86V742.4346a56.3933,56.3933,0,0,1-20.56,17.9683q-12.6165,6.5592-31.6165,6.5646a86.8778,86.8778,0,0,1-35.4178-7.0835,81.17,81.17,0,0,1-27.4714-19.5228A89.1731,89.1731,0,0,1,2743,710.6445,107.6123,107.6123,0,0,1,2736.607,672.9807Zm139.253-7.6024a40.2329,40.2329,0,0,0-13.9936-26.4336q-11.9218-10.1886-28.8531-10.1932a44.6783,44.6783,0,0,0-17.9684,3.4551,40.9966,40.9966,0,0,0-13.6482,9.503,40.4166,40.4166,0,0,0-8.6387,14.1671,49.84,49.84,0,0,0-2.9369,17.104,45.1177,45.1177,0,0,0,3.1088,16.5859,42.4765,42.4765,0,0,0,8.6388,13.8217,39.7606,39.7606,0,0,0,13.65,9.33,44.9246,44.9246,0,0,0,17.7949,3.455q17.6212,0,29.37-10.3659a39.255,39.255,0,0,0,13.4763-25.9154Z"/></g></g></svg>